<svg width="800" height="450" viewBox="0 0 800 450" xmlns="http://www.w3.org/2000/svg" font-family="'Segoe UI', Arial, sans-serif">
  <defs>
    <pattern id="hatch" patternUnits="userSpaceOnUse" width="6" height="6" patternTransform="rotate(45)">
      <line x1="0" y1="0" x2="0" y2="6" stroke="#AAAAAA" stroke-width="1.5"/>
    </pattern>
    <marker id="arr" markerWidth="8" markerHeight="6" refX="7" refY="3" orient="auto">
      <polygon points="0 0, 8 3, 0 6" fill="#555555"/>
    </marker>
  </defs>

  <!-- Background -->
  <rect width="800" height="450" fill="#F2EDE4"/>

  <!-- Title -->
  <text x="400" y="24" text-anchor="middle" font-size="15" font-weight="700" fill="#002C5F">Latency Hiding — GPU가 빠른 진짜 이유</text>
  <text x="400" y="42" text-anchor="middle" font-size="10" fill="#555555">메모리 대기 중 다른 Warp 실행 → GPU SM은 항상 바쁘다</text>

  <!-- Axis setup -->
  <!-- Y axis: Warp 0-7, X axis: Cycles 0-700 -->
  <!-- Left margin: 100, top: 60, right: 20, bottom: 60 -->
  <!-- Chart area: x=100 to x=780, y=60 to y=340 -->
  <!-- Row height: (340-60)/8 = 35 per warp -->

  <!-- X Axis -->
  <line x1="100" y1="340" x2="780" y2="340" stroke="#555555" stroke-width="1.5" marker-end="url(#arr)"/>
  <text x="790" y="344" font-size="10" fill="#555555">사이클 (Cycles)</text>

  <!-- Y Axis -->
  <line x1="100" y1="60" x2="100" y2="345" stroke="#555555" stroke-width="1.5"/>

  <!-- X tick labels -->
  <text x="100" y="357" text-anchor="middle" font-size="9" fill="#888888">0</text>
  <text x="198" y="357" text-anchor="middle" font-size="9" fill="#888888">100</text>
  <text x="296" y="357" text-anchor="middle" font-size="9" fill="#888888">200</text>
  <text x="394" y="357" text-anchor="middle" font-size="9" fill="#888888">300</text>
  <text x="492" y="357" text-anchor="middle" font-size="9" fill="#888888">400</text>
  <text x="590" y="357" text-anchor="middle" font-size="9" fill="#888888">500</text>
  <text x="688" y="357" text-anchor="middle" font-size="9" fill="#888888">600</text>

  <!-- Grid lines (light vertical) -->
  <line x1="198" y1="60" x2="198" y2="340" stroke="#D5CFBF" stroke-width="0.5" stroke-dasharray="3,3"/>
  <line x1="296" y1="60" x2="296" y2="340" stroke="#D5CFBF" stroke-width="0.5" stroke-dasharray="3,3"/>
  <line x1="394" y1="60" x2="394" y2="340" stroke="#D5CFBF" stroke-width="0.5" stroke-dasharray="3,3"/>
  <line x1="492" y1="60" x2="492" y2="340" stroke="#D5CFBF" stroke-width="0.5" stroke-dasharray="3,3"/>
  <line x1="590" y1="60" x2="590" y2="340" stroke="#D5CFBF" stroke-width="0.5" stroke-dasharray="3,3"/>
  <line x1="688" y1="60" x2="688" y2="340" stroke="#D5CFBF" stroke-width="0.5" stroke-dasharray="3,3"/>

  <!-- Warp row definitions -->
  <!-- Each warp: label, then blocks -->
  <!-- Pattern per warp: EXEC(60c) STALL(120c) EXEC(60c) STALL(80c) EXEC(80c) -->
  <!-- Stagger by 30 cycles per warp -->
  <!-- 1 cycle = (780-100)/700 * 1 = 0.971 px/cycle ≈ 0.97 px -->
  <!-- Scale: 680px / 700 cycles = 0.971 px/cycle -->
  <!-- Let's use 60 px exec, 120 px stall, 60 px exec, 80 px stall, 80 px exec -->
  <!-- Stagger by 30px between warps -->

  <!-- Helper macro: for each warp row -->
  <!-- Row height = 35, bar height = 22, bar y offset = 6 from row top -->
  <!-- Row 0 y = 60, Row 1 y = 95, ... Row 7 y = 305 -->

  <!-- WARP 0 -->
  <text x="95" y="77" text-anchor="end" font-size="10" font-weight="700" fill="#002C5F">Warp 0</text>
  <!-- EXEC block 1 -->
  <rect x="100" y="63" width="60" height="22" rx="3" fill="#002C5F">
    <animate attributeName="opacity" values="1;0.4;1" dur="2.8s" begin="0s" repeatCount="indefinite"/>
  </rect>
  <text x="130" y="78" text-anchor="middle" font-size="7" fill="#FFFFFF">EXEC</text>
  <!-- STALL block -->
  <rect x="160" y="63" width="120" height="22" rx="3" fill="url(#hatch)" stroke="#AAAAAA" stroke-width="1"/>
  <rect x="160" y="63" width="120" height="22" rx="3" fill="#DDDDDD" opacity="0.4"/>
  <text x="220" y="78" text-anchor="middle" font-size="7" fill="#666666">MEM STALL</text>
  <!-- EXEC block 2 -->
  <rect x="280" y="63" width="60" height="22" rx="3" fill="#002C5F">
    <animate attributeName="opacity" values="1;0.4;1" dur="2.8s" begin="0.35s" repeatCount="indefinite"/>
  </rect>
  <text x="310" y="78" text-anchor="middle" font-size="7" fill="#FFFFFF">EXEC</text>
  <!-- STALL block 2 -->
  <rect x="340" y="63" width="100" height="22" rx="3" fill="url(#hatch)" stroke="#AAAAAA" stroke-width="1"/>
  <rect x="340" y="63" width="100" height="22" rx="3" fill="#DDDDDD" opacity="0.4"/>
  <text x="390" y="78" text-anchor="middle" font-size="7" fill="#666666">MEM STALL</text>
  <!-- EXEC block 3 -->
  <rect x="440" y="63" width="80" height="22" rx="3" fill="#002C5F">
    <animate attributeName="opacity" values="1;0.4;1" dur="2.8s" begin="0.7s" repeatCount="indefinite"/>
  </rect>
  <text x="480" y="78" text-anchor="middle" font-size="7" fill="#FFFFFF">EXEC</text>
  <!-- STALL 3 -->
  <rect x="520" y="63" width="110" height="22" rx="3" fill="url(#hatch)" stroke="#AAAAAA" stroke-width="1"/>
  <rect x="520" y="63" width="110" height="22" rx="3" fill="#DDDDDD" opacity="0.4"/>
  <!-- EXEC 4 -->
  <rect x="630" y="63" width="70" height="22" rx="3" fill="#002C5F">
    <animate attributeName="opacity" values="1;0.4;1" dur="2.8s" begin="1.05s" repeatCount="indefinite"/>
  </rect>
  <text x="665" y="78" text-anchor="middle" font-size="7" fill="#FFFFFF">EXEC</text>
  <rect x="700" y="63" width="60" height="22" rx="3" fill="url(#hatch)" stroke="#AAAAAA" stroke-width="1"/>
  <rect x="700" y="63" width="60" height="22" rx="3" fill="#DDDDDD" opacity="0.4"/>

  <!-- WARP 1 -->
  <text x="95" y="112" text-anchor="end" font-size="10" font-weight="700" fill="#002C5F">Warp 1</text>
  <rect x="100" y="98" width="30" height="22" rx="3" fill="#003F8A"/>
  <text x="115" y="113" text-anchor="middle" font-size="7" fill="#FFFFFF">EX</text>
  <rect x="130" y="98" width="120" height="22" rx="3" fill="url(#hatch)" stroke="#AAAAAA" stroke-width="1"/>
  <rect x="130" y="98" width="120" height="22" rx="3" fill="#DDDDDD" opacity="0.4"/>
  <text x="190" y="113" text-anchor="middle" font-size="7" fill="#666666">MEM STALL</text>
  <rect x="250" y="98" width="70" height="22" rx="3" fill="#003F8A">
    <animate attributeName="opacity" values="1;0.4;1" dur="2.8s" begin="0.1s" repeatCount="indefinite"/>
  </rect>
  <text x="285" y="113" text-anchor="middle" font-size="7" fill="#FFFFFF">EXEC</text>
  <rect x="320" y="98" width="110" height="22" rx="3" fill="url(#hatch)" stroke="#AAAAAA" stroke-width="1"/>
  <rect x="320" y="98" width="110" height="22" rx="3" fill="#DDDDDD" opacity="0.4"/>
  <text x="375" y="113" text-anchor="middle" font-size="7" fill="#666666">MEM STALL</text>
  <rect x="430" y="98" width="65" height="22" rx="3" fill="#003F8A">
    <animate attributeName="opacity" values="1;0.4;1" dur="2.8s" begin="0.45s" repeatCount="indefinite"/>
  </rect>
  <text x="462" y="113" text-anchor="middle" font-size="7" fill="#FFFFFF">EXEC</text>
  <rect x="495" y="98" width="90" height="22" rx="3" fill="url(#hatch)" stroke="#AAAAAA" stroke-width="1"/>
  <rect x="495" y="98" width="90" height="22" rx="3" fill="#DDDDDD" opacity="0.4"/>
  <rect x="585" y="98" width="75" height="22" rx="3" fill="#003F8A">
    <animate attributeName="opacity" values="1;0.4;1" dur="2.8s" begin="0.8s" repeatCount="indefinite"/>
  </rect>
  <text x="622" y="113" text-anchor="middle" font-size="7" fill="#FFFFFF">EXEC</text>
  <rect x="660" y="98" width="100" height="22" rx="3" fill="url(#hatch)" stroke="#AAAAAA" stroke-width="1"/>
  <rect x="660" y="98" width="100" height="22" rx="3" fill="#DDDDDD" opacity="0.4"/>

  <!-- WARP 2 -->
  <text x="95" y="147" text-anchor="end" font-size="10" font-weight="700" fill="#002C5F">Warp 2</text>
  <rect x="100" y="133" width="20" height="22" rx="3" fill="#1A6BB5"/>
  <rect x="120" y="133" width="120" height="22" rx="3" fill="url(#hatch)" stroke="#AAAAAA" stroke-width="1"/>
  <rect x="120" y="133" width="120" height="22" rx="3" fill="#DDDDDD" opacity="0.4"/>
  <rect x="240" y="133" width="80" height="22" rx="3" fill="#1A6BB5">
    <animate attributeName="opacity" values="1;0.4;1" dur="2.8s" begin="0.2s" repeatCount="indefinite"/>
  </rect>
  <text x="280" y="148" text-anchor="middle" font-size="7" fill="#FFFFFF">EXEC</text>
  <rect x="320" y="133" width="100" height="22" rx="3" fill="url(#hatch)" stroke="#AAAAAA" stroke-width="1"/>
  <rect x="320" y="133" width="100" height="22" rx="3" fill="#DDDDDD" opacity="0.4"/>
  <rect x="420" y="133" width="70" height="22" rx="3" fill="#1A6BB5">
    <animate attributeName="opacity" values="1;0.4;1" dur="2.8s" begin="0.55s" repeatCount="indefinite"/>
  </rect>
  <text x="455" y="148" text-anchor="middle" font-size="7" fill="#FFFFFF">EXEC</text>
  <rect x="490" y="133" width="110" height="22" rx="3" fill="url(#hatch)" stroke="#AAAAAA" stroke-width="1"/>
  <rect x="490" y="133" width="110" height="22" rx="3" fill="#DDDDDD" opacity="0.4"/>
  <rect x="600" y="133" width="60" height="22" rx="3" fill="#1A6BB5">
    <animate attributeName="opacity" values="1;0.4;1" dur="2.8s" begin="0.9s" repeatCount="indefinite"/>
  </rect>
  <text x="630" y="148" text-anchor="middle" font-size="7" fill="#FFFFFF">EXEC</text>
  <rect x="660" y="133" width="100" height="22" rx="3" fill="url(#hatch)" stroke="#AAAAAA" stroke-width="1"/>
  <rect x="660" y="133" width="100" height="22" rx="3" fill="#DDDDDD" opacity="0.4"/>

  <!-- WARP 3 -->
  <text x="95" y="182" text-anchor="end" font-size="10" font-weight="700" fill="#002C5F">Warp 3</text>
  <rect x="100" y="168" width="40" height="22" rx="3" fill="#3A88D8"/>
  <text x="120" y="183" text-anchor="middle" font-size="7" fill="#FFFFFF">EX</text>
  <rect x="140" y="168" width="120" height="22" rx="3" fill="url(#hatch)" stroke="#AAAAAA" stroke-width="1"/>
  <rect x="140" y="168" width="120" height="22" rx="3" fill="#DDDDDD" opacity="0.4"/>
  <text x="200" y="183" text-anchor="middle" font-size="7" fill="#666666">MEM STALL</text>
  <rect x="260" y="168" width="75" height="22" rx="3" fill="#3A88D8">
    <animate attributeName="opacity" values="1;0.4;1" dur="2.8s" begin="0.3s" repeatCount="indefinite"/>
  </rect>
  <text x="297" y="183" text-anchor="middle" font-size="7" fill="#FFFFFF">EXEC</text>
  <rect x="335" y="168" width="95" height="22" rx="3" fill="url(#hatch)" stroke="#AAAAAA" stroke-width="1"/>
  <rect x="335" y="168" width="95" height="22" rx="3" fill="#DDDDDD" opacity="0.4"/>
  <rect x="430" y="168" width="80" height="22" rx="3" fill="#3A88D8">
    <animate attributeName="opacity" values="1;0.4;1" dur="2.8s" begin="0.65s" repeatCount="indefinite"/>
  </rect>
  <text x="470" y="183" text-anchor="middle" font-size="7" fill="#FFFFFF">EXEC</text>
  <rect x="510" y="168" width="100" height="22" rx="3" fill="url(#hatch)" stroke="#AAAAAA" stroke-width="1"/>
  <rect x="510" y="168" width="100" height="22" rx="3" fill="#DDDDDD" opacity="0.4"/>
  <rect x="610" y="168" width="70" height="22" rx="3" fill="#3A88D8">
    <animate attributeName="opacity" values="1;0.4;1" dur="2.8s" begin="1.0s" repeatCount="indefinite"/>
  </rect>
  <text x="645" y="183" text-anchor="middle" font-size="7" fill="#FFFFFF">EXEC</text>
  <rect x="680" y="168" width="80" height="22" rx="3" fill="url(#hatch)" stroke="#AAAAAA" stroke-width="1"/>
  <rect x="680" y="168" width="80" height="22" rx="3" fill="#DDDDDD" opacity="0.4"/>

  <!-- WARP 4 -->
  <text x="95" y="217" text-anchor="end" font-size="10" font-weight="700" fill="#002C5F">Warp 4</text>
  <rect x="100" y="203" width="50" height="22" rx="3" fill="#5A9AD5"/>
  <text x="125" y="218" text-anchor="middle" font-size="7" fill="#FFFFFF">EXEC</text>
  <rect x="150" y="203" width="120" height="22" rx="3" fill="url(#hatch)" stroke="#AAAAAA" stroke-width="1"/>
  <rect x="150" y="203" width="120" height="22" rx="3" fill="#DDDDDD" opacity="0.4"/>
  <text x="210" y="218" text-anchor="middle" font-size="7" fill="#666666">MEM STALL</text>
  <rect x="270" y="203" width="70" height="22" rx="3" fill="#5A9AD5">
    <animate attributeName="opacity" values="1;0.4;1" dur="2.8s" begin="0.4s" repeatCount="indefinite"/>
  </rect>
  <text x="305" y="218" text-anchor="middle" font-size="7" fill="#FFFFFF">EXEC</text>
  <rect x="340" y="203" width="110" height="22" rx="3" fill="url(#hatch)" stroke="#AAAAAA" stroke-width="1"/>
  <rect x="340" y="203" width="110" height="22" rx="3" fill="#DDDDDD" opacity="0.4"/>
  <rect x="450" y="203" width="75" height="22" rx="3" fill="#5A9AD5">
    <animate attributeName="opacity" values="1;0.4;1" dur="2.8s" begin="0.75s" repeatCount="indefinite"/>
  </rect>
  <text x="487" y="218" text-anchor="middle" font-size="7" fill="#FFFFFF">EXEC</text>
  <rect x="525" y="203" width="95" height="22" rx="3" fill="url(#hatch)" stroke="#AAAAAA" stroke-width="1"/>
  <rect x="525" y="203" width="95" height="22" rx="3" fill="#DDDDDD" opacity="0.4"/>
  <rect x="620" y="203" width="80" height="22" rx="3" fill="#5A9AD5">
    <animate attributeName="opacity" values="1;0.4;1" dur="2.8s" begin="1.1s" repeatCount="indefinite"/>
  </rect>
  <text x="660" y="218" text-anchor="middle" font-size="7" fill="#FFFFFF">EXEC</text>
  <rect x="700" y="203" width="60" height="22" rx="3" fill="url(#hatch)" stroke="#AAAAAA" stroke-width="1"/>
  <rect x="700" y="203" width="60" height="22" rx="3" fill="#DDDDDD" opacity="0.4"/>

  <!-- WARP 5 -->
  <text x="95" y="252" text-anchor="end" font-size="10" font-weight="700" fill="#002C5F">Warp 5</text>
  <rect x="100" y="238" width="65" height="22" rx="3" fill="#7AAFD8"/>
  <text x="132" y="253" text-anchor="middle" font-size="7" fill="#FFFFFF">EXEC</text>
  <rect x="165" y="238" width="110" height="22" rx="3" fill="url(#hatch)" stroke="#AAAAAA" stroke-width="1"/>
  <rect x="165" y="238" width="110" height="22" rx="3" fill="#DDDDDD" opacity="0.4"/>
  <rect x="275" y="238" width="65" height="22" rx="3" fill="#7AAFD8">
    <animate attributeName="opacity" values="1;0.4;1" dur="2.8s" begin="0.5s" repeatCount="indefinite"/>
  </rect>
  <text x="307" y="253" text-anchor="middle" font-size="7" fill="#FFFFFF">EXEC</text>
  <rect x="340" y="238" width="120" height="22" rx="3" fill="url(#hatch)" stroke="#AAAAAA" stroke-width="1"/>
  <rect x="340" y="238" width="120" height="22" rx="3" fill="#DDDDDD" opacity="0.4"/>
  <rect x="460" y="238" width="65" height="22" rx="3" fill="#7AAFD8">
    <animate attributeName="opacity" values="1;0.4;1" dur="2.8s" begin="0.85s" repeatCount="indefinite"/>
  </rect>
  <text x="492" y="253" text-anchor="middle" font-size="7" fill="#FFFFFF">EXEC</text>
  <rect x="525" y="238" width="100" height="22" rx="3" fill="url(#hatch)" stroke="#AAAAAA" stroke-width="1"/>
  <rect x="525" y="238" width="100" height="22" rx="3" fill="#DDDDDD" opacity="0.4"/>
  <rect x="625" y="238" width="70" height="22" rx="3" fill="#7AAFD8">
    <animate attributeName="opacity" values="1;0.4;1" dur="2.8s" begin="1.2s" repeatCount="indefinite"/>
  </rect>
  <text x="660" y="253" text-anchor="middle" font-size="7" fill="#FFFFFF">EXEC</text>
  <rect x="695" y="238" width="65" height="22" rx="3" fill="url(#hatch)" stroke="#AAAAAA" stroke-width="1"/>
  <rect x="695" y="238" width="65" height="22" rx="3" fill="#DDDDDD" opacity="0.4"/>

  <!-- WARP 6 -->
  <text x="95" y="287" text-anchor="end" font-size="10" font-weight="700" fill="#002C5F">Warp 6</text>
  <rect x="100" y="273" width="75" height="22" rx="3" fill="#A0C4E4"/>
  <text x="137" y="288" text-anchor="middle" font-size="7" fill="#002C5F">EXEC</text>
  <rect x="175" y="273" width="110" height="22" rx="3" fill="url(#hatch)" stroke="#AAAAAA" stroke-width="1"/>
  <rect x="175" y="273" width="110" height="22" rx="3" fill="#DDDDDD" opacity="0.4"/>
  <rect x="285" y="273" width="60" height="22" rx="3" fill="#A0C4E4">
    <animate attributeName="opacity" values="1;0.4;1" dur="2.8s" begin="0.6s" repeatCount="indefinite"/>
  </rect>
  <text x="315" y="288" text-anchor="middle" font-size="7" fill="#002C5F">EXEC</text>
  <rect x="345" y="273" width="110" height="22" rx="3" fill="url(#hatch)" stroke="#AAAAAA" stroke-width="1"/>
  <rect x="345" y="273" width="110" height="22" rx="3" fill="#DDDDDD" opacity="0.4"/>
  <rect x="455" y="273" width="70" height="22" rx="3" fill="#A0C4E4">
    <animate attributeName="opacity" values="1;0.4;1" dur="2.8s" begin="0.95s" repeatCount="indefinite"/>
  </rect>
  <text x="490" y="288" text-anchor="middle" font-size="7" fill="#002C5F">EXEC</text>
  <rect x="525" y="273" width="105" height="22" rx="3" fill="url(#hatch)" stroke="#AAAAAA" stroke-width="1"/>
  <rect x="525" y="273" width="105" height="22" rx="3" fill="#DDDDDD" opacity="0.4"/>
  <rect x="630" y="273" width="65" height="22" rx="3" fill="#A0C4E4">
    <animate attributeName="opacity" values="1;0.4;1" dur="2.8s" begin="1.3s" repeatCount="indefinite"/>
  </rect>
  <text x="662" y="288" text-anchor="middle" font-size="7" fill="#002C5F">EXEC</text>
  <rect x="695" y="273" width="65" height="22" rx="3" fill="url(#hatch)" stroke="#AAAAAA" stroke-width="1"/>
  <rect x="695" y="273" width="65" height="22" rx="3" fill="#DDDDDD" opacity="0.4"/>

  <!-- WARP 7 -->
  <text x="95" y="322" text-anchor="end" font-size="10" font-weight="700" fill="#002C5F">Warp 7</text>
  <rect x="100" y="308" width="85" height="22" rx="3" fill="#C8DFF2"/>
  <text x="142" y="323" text-anchor="middle" font-size="7" fill="#002C5F">EXEC</text>
  <rect x="185" y="308" width="110" height="22" rx="3" fill="url(#hatch)" stroke="#AAAAAA" stroke-width="1"/>
  <rect x="185" y="308" width="110" height="22" rx="3" fill="#DDDDDD" opacity="0.4"/>
  <rect x="295" y="308" width="60" height="22" rx="3" fill="#C8DFF2">
    <animate attributeName="opacity" values="1;0.4;1" dur="2.8s" begin="0.7s" repeatCount="indefinite"/>
  </rect>
  <text x="325" y="323" text-anchor="middle" font-size="7" fill="#002C5F">EXEC</text>
  <rect x="355" y="308" width="100" height="22" rx="3" fill="url(#hatch)" stroke="#AAAAAA" stroke-width="1"/>
  <rect x="355" y="308" width="100" height="22" rx="3" fill="#DDDDDD" opacity="0.4"/>
  <rect x="455" y="308" width="75" height="22" rx="3" fill="#C8DFF2">
    <animate attributeName="opacity" values="1;0.4;1" dur="2.8s" begin="1.05s" repeatCount="indefinite"/>
  </rect>
  <text x="492" y="323" text-anchor="middle" font-size="7" fill="#002C5F">EXEC</text>
  <rect x="530" y="308" width="100" height="22" rx="3" fill="url(#hatch)" stroke="#AAAAAA" stroke-width="1"/>
  <rect x="530" y="308" width="100" height="22" rx="3" fill="#DDDDDD" opacity="0.4"/>
  <rect x="630" y="308" width="70" height="22" rx="3" fill="#C8DFF2">
    <animate attributeName="opacity" values="1;0.4;1" dur="2.8s" begin="1.4s" repeatCount="indefinite"/>
  </rect>
  <text x="665" y="323" text-anchor="middle" font-size="7" fill="#002C5F">EXEC</text>
  <rect x="700" y="308" width="60" height="22" rx="3" fill="url(#hatch)" stroke="#AAAAAA" stroke-width="1"/>
  <rect x="700" y="308" width="60" height="22" rx="3" fill="#DDDDDD" opacity="0.4"/>

  <!-- Vertical "SM Active" bar on the right -->
  <rect x="763" y="60" width="20" height="282" rx="4" fill="#00AA6C" opacity="0.85"/>
  <text x="773" y="206" text-anchor="middle" font-size="8" fill="#FFFFFF" font-weight="700" transform="rotate(-90,773,206)">SM 항상 활성</text>

  <!-- Legend -->
  <rect x="100" y="365" width="18" height="12" rx="2" fill="#002C5F"/>
  <text x="122" y="375" font-size="9" fill="#1A1A1A">실행 (Execute)</text>
  <rect x="230" y="365" width="18" height="12" rx="2" fill="url(#hatch)" stroke="#AAAAAA" stroke-width="1"/>
  <rect x="230" y="365" width="18" height="12" rx="2" fill="#DDDDDD" opacity="0.4"/>
  <text x="252" y="375" font-size="9" fill="#1A1A1A">메모리 대기 (Stall)</text>

  <!-- Key insight box -->
  <rect x="100" y="385" width="660" height="52" rx="6" fill="#FFFFFF" stroke="#00AA6C" stroke-width="2"/>
  <text x="430" y="402" text-anchor="middle" font-size="11" font-weight="700" fill="#00AA6C">핵심 인사이트: Warp-Level Latency Hiding</text>
  <text x="430" y="418" text-anchor="middle" font-size="9" fill="#1A1A1A">Warp 0이 메모리 요청 후 대기할 때, SM 스케줄러는 즉시 준비된 다른 Warp로 전환합니다.</text>
  <text x="430" y="432" text-anchor="middle" font-size="9" fill="#555555">수천 개의 Thread를 동시 관리함으로써 메모리 지연(200+ cycles)을 완전히 숨길 수 있습니다.</text>
</svg>
